<svg width="140" height="40" viewBox="0 0 140 40" fill="none" xmlns="http://www.w3.org/2000/svg">
    <path fill-rule="evenodd" clip-rule="evenodd" d="M104.805 29.2275C104.805 35.1765 99.9815 40 94.0337 40C88.0847 40 83.2624 35.1765 83.2624 29.2275H89.137C89.137 31.9322 91.3291 34.1242 94.0337 34.1242C96.7371 34.1242 98.9292 31.9322 98.9292 29.2275H104.805ZM94.0337 13.569C96.7371 13.569 98.9292 15.7611 98.9292 18.4657C98.9292 21.1691 96.7371 23.3612 94.0337 23.3612C91.3291 23.3612 89.137 21.1691 89.137 18.4657C89.137 15.7611 91.3291 13.569 94.0337 13.569ZM94.0337 7.69446C99.9815 7.69446 104.805 12.5167 104.805 18.4657C104.805 24.4147 99.9815 29.237 94.0337 29.237C88.0847 29.237 83.2624 24.4147 83.2624 18.4657C83.2624 12.5167 88.0847 7.69446 94.0337 7.69446ZM70.129 7.69446C76.0001 7.69446 80.7597 12.4541 80.7597 18.3252V28.9571H70.129C64.2568 28.9571 59.4971 24.1974 59.4971 18.3252C59.4971 12.4541 64.2568 7.69446 70.129 7.69446ZM70.129 13.4297C72.8325 13.4297 75.0245 15.6217 75.0245 18.3252C75.0245 21.0298 72.8325 23.2218 70.129 23.2218C67.4244 23.2218 65.2324 21.0298 65.2324 18.3252C65.2324 15.6217 67.4244 13.4297 70.129 13.4297ZM36 7.97317H46.4913C52.2856 7.97317 56.9827 12.6714 56.9827 18.4657V28.9571H51.1081V18.0452C51.1081 15.4965 49.0413 13.4297 46.4913 13.4297C43.9414 13.4297 41.8758 15.4965 41.8758 18.0452V28.9571H36.0024L36 7.97317Z" fill="black"/>
    <path fill-rule="evenodd" clip-rule="evenodd" d="M100.817 2.17551C101.818 2.17551 102.63 2.98691 102.63 3.98727C102.63 4.98881 101.818 5.799 100.817 5.799C99.8163 5.799 99.0049 4.98881 99.0049 3.98727C99.0049 2.98691 99.8163 2.17551 100.817 2.17551ZM100.817 0C103.019 0 104.804 1.78577 104.804 3.98727C104.804 6.18877 103.019 7.97451 100.817 7.97451C98.6151 7.97451 96.8306 6.18877 96.8306 3.98727C96.8306 1.78577 98.6151 0 100.817 0V0Z" fill="black"/>
</svg>